<svg width="63" height="105" viewBox="0 0 63 105" fill="none" xmlns="http://www.w3.org/2000/svg">
<path d="M20 0H43.75L45.625 5.625L50 26.25L55 30.625L59.375 36.875L61.875 43.75L62.5 46.875V105H58.125L57.5 103.125L56.875 46.875L54.375 39.375L51.875 36.25L52.5 47.5V63.75L49.375 71.25L43.75 76.875L36.25 80H26.875L20 77.5L13.75 71.875L11.25 67.5L10 62.5V50L11.25 37.5L11.875 35L9.375 37.5L6.25 45L5.625 48.125L5 104.375L4.375 105H0.625L0 103.75V48.125L1.875 40.625L5.625 33.125L10 28.125L13.125 26.875L14.375 18.125L18.125 1.875L20 0Z" fill="white"/>
<path d="M20 0H43.75L45.625 5.625L50 26.25L55 30.625L59.375 36.875L61.875 43.75L62.5 46.875V105H58.125L57.5 103.125L56.875 46.875L54.375 39.375L51.875 36.25L52.5 47.5V63.75L49.375 71.25L43.75 76.875L36.25 80H26.875L20 77.5L13.75 71.875L11.25 67.5L10 62.5V50L11.25 37.5L11.875 35L9.375 37.5L6.25 45L5.625 48.125L5 104.375L4.375 105H0.625L0 103.75V48.125L1.875 40.625L5.625 33.125L10 28.125L13.125 26.875L14.375 18.125L18.125 1.875L20 0ZM22.5 5.625L20 15.625L16.25 37.5L15 49.375V61.875L16.875 66.875L20.625 71.25L24.375 73.75L26.875 75H35.625L40.625 72.5L46.25 66.25L47.5 63.125V46.875L45 28.125L40.625 6.25L40 5.625H22.5Z" fill="black"/>
</svg>
