<svg width="93" height="117" viewBox="0 0 93 117" fill="none" xmlns="http://www.w3.org/2000/svg">
<path d="M67.25 61H70.375L71 67.25L69.75 71.625L66 71V61.625L67.25 61Z" fill="white"/>
<path d="M66.625 29H71L71.625 30.875V47.125L71 49.625H66.625L66 49V29.625L66.625 29Z" fill="white"/>
<path d="M29.875 0L31.125 1.25L33 5L37.375 6.875V8.125L32.375 10.625L30.5 15L29.25 13.75L27.375 10L23 7.5L24.25 6.25L27.375 4.375L29.25 1.25L29.875 0Z" fill="white"/>
<path d="M11.25 15L12.5 16.25L14.375 20.625L15.625 23.125L22.5 26.25V27.5L15 31.25L11.875 38.75H10.625L8.125 31.875L7.5 30L4.375 29.375L0 27.5V26.25L6.25 23.75H7.5L8.75 20.625L11.25 15Z" fill="white"/>
<path d="M60 15L66.875 15.625L73.125 18.125L77.5 21.875L81.25 27.5L82.5 31.875L83.125 40L88.75 47.5L91.25 53.75L92.5 59.375V116.25L91.875 116.875H88.125L87.5 116.25L86.875 59.375L85 53.75L83.75 49.375H82.5V75L80 81.875L75.625 86.875L73.75 88.75L68.125 91.25L65.625 91.875H56.875L48.75 88.75L43.75 83.75L40.625 77.5L40 75V49.375H38.75L38.125 52.5L36.25 56.25L35.625 59.375L35 116.25L34.375 116.875H30.625L30 115.625V60L32.5 50L35 45.625H36.25L37.5 42.5L39.375 40.625L40 32.5L41.875 26.875L45.625 21.25L49.375 18.125L55.625 15.625L60 15ZM56.25 20.625L50.625 24.375L46.25 29.375L45 32.5V74.375L48.125 80.625L53.75 85.625L57.5 86.875H65L70.625 84.375L75.625 79.375L77.5 75V32.5L75 27.5L72.5 24.375H71.25V23.125L65.625 20.625H56.25Z" fill="black"/>
</svg>
