<svg width="79" height="62" viewBox="0 0 79 62" fill="none" xmlns="http://www.w3.org/2000/svg">
<path d="M41.0193 34.875L46.8856 34.9466L47.1865 35.376L47.3369 35.4476V34.9466H51.5486L51.6238 39.8849L51.9247 40.3143L52.8272 41.2447L53.5041 41.9604L54.2562 42.7477L54.557 43.1055V39.7418L54.3314 38.5251L54.4066 38.2388L54.6322 38.1672V34.9466H57.4902L57.5654 41.3879L58.7687 41.9604L60.0473 42.3183L60.4985 42.3898H62.454L64.0334 42.1036L65.4624 41.6026L66.3649 41.1016L67.0418 40.6006L67.5682 40.1712L68.3955 39.1692L68.9972 38.2388L69.5237 37.0937L69.8997 36.0201L70.2006 35.0181L70.2758 34.9466H75.014L74.7131 36.1633L74.2619 37.3799L73.6602 38.6682L72.8329 39.9565L72.0808 40.8869L71.1031 41.8889L70.0501 42.6761L69.0724 43.2487L67.7939 43.8212L66.6657 44.1791L65.1615 44.4654L63.6573 44.6085H62.3788L60.9498 44.4654L59.4456 44.1075L57.9414 43.535L57.5654 43.3203V46.2546L58.0166 46.8272L58.6935 47.5429L59.3704 48.3301L60.2729 49.3321L60.9498 50.1194L61.9275 51.1929L63.2813 52.6243L64.4094 53.6979L65.0111 54.1989L65.5376 54.6999L66.1392 55.2009L67.4178 56.1313L68.8468 56.9901L69.9749 57.6342L71.1783 58.1352L72.3064 58.4931L73.961 58.8509L75.014 58.9941H77.5711L78.7744 58.8509L78.9249 58.9941L79.0001 59.4235L78.3232 59.7098L76.3677 60.1392L74.7883 60.3539H71.7047L70.2758 60.1392L68.3955 59.6382L66.5153 58.9225L65.2367 58.3499L63.5821 57.4195L62.1531 56.4175L61.401 55.7734L60.5737 55.1293L59.9721 54.5567L59.3704 54.0557L56.6629 51.4792L56.1364 50.9067L55.0082 49.7615L54.4818 49.189L53.8049 48.4733L53.2784 47.9007L52.2255 46.8272L51.6238 46.1115H51.5486L51.6238 57.9205L51.8494 58.8509L52.3759 59.7813L52.9024 60.3539L53.8049 60.9265L54.6322 61.2127L55.986 61.3559H56.362L56.5124 61.5706L56.4372 61.9284L56.2868 62H42.5987L42.4483 61.9284V61.4274L44.2533 61.2127L45.231 60.8549L45.9079 60.4255L46.5096 59.8529L46.9608 59.1372L47.2617 58.2784L47.3369 57.6342V41.6741L46.66 40.9584L46.1335 40.3859L44.7798 38.9545L43.9525 38.0956L43.426 37.5231L42.7491 36.8074L41.9218 35.9485L41.0193 35.0181V34.875Z" fill="white"/>
<path d="M5.51456 0L7.55419 0.0708025L8.8384 0.212407L10.2737 0.495617L11.5579 0.920432L13.1443 1.62846L14.5796 2.47809L15.9393 3.39852L17.148 4.31895L17.979 4.95617L19.1121 5.94741L20.8496 7.57586L21.3783 8.14228L22.587 9.34593L23.1158 9.91235L23.8712 10.6912L24.4 11.2576L25.3065 12.178L25.8353 12.7444L26.5907 13.5233L27.1195 14.0897L28.026 15.0101L28.5548 15.5765L29.9146 16.9926L30.7455 17.8422L31.2743 18.4086L32.6341 19.8247L33.465 20.6743L33.9938 21.2407L34.7493 22.0196L35.278 22.586L36.1845 23.5064L36.7133 24.0728L37.4688 24.8517L37.9976 25.4181L38.8285 26.2677L39.735 27.2589L40.7171 28.2502L41.0192 28.675H35.3536L34.7493 28.1794L33.6917 27.1173L33.1629 26.5509L32.2564 25.6305L31.7276 25.0641L31.0477 24.356L30.1412 23.4356L29.6124 22.8692L28.2527 21.4531L27.4217 20.6035L26.7418 19.8955L26.213 19.3291L25.3821 18.4794L24.8533 17.913L23.9468 16.9926L23.418 16.4262L23.0403 16.0014L22.9647 28.675H20.0186L19.943 28.0378V13.0277L19.792 12.6736L18.5833 11.1868L17.7523 10.1956L16.3926 8.6379L15.7127 7.92988L15.0328 7.15105L13.6731 5.8766L12.8421 5.23938L11.7845 4.38975L10.5759 3.54012L9.44273 2.9029L8.15852 2.33648L6.57214 1.84086L5.13685 1.55765L4.60805 1.48685H2.26626L0.906502 1.69926L0.151084 1.77006L0 1.48685L0.0755419 1.13284L2.3418 0.424815L3.85263 0.141605L5.51456 0Z" fill="white"/>
<path d="M49.6884 7.75H62.7086L62.7839 7.82191V8.32526L62.4829 8.39716L60.9024 8.46907L60.1498 8.68479L59.3219 9.11624L58.9456 9.47577H58.795L58.6445 9.7634L58.1177 10.4825L57.8166 11.3454L57.7414 11.8487L57.6661 18.7518L59.1714 18.608L61.5045 18.5361L63.8376 18.6799L65.7944 19.0394L67.2996 19.4709L68.8801 20.118L70.1595 20.8371L71.1379 21.5562L71.8905 22.2034L72.5679 22.8505L73.3958 23.9291L73.9979 24.9358L74.5999 26.2302L75.0515 27.6683L75.202 28.3155V28.675H70.5358L70.3853 28.5312L69.8585 26.7335L69.2564 25.3673L68.5038 24.2168L67.6759 23.3539L67.1491 22.8505L66.0954 22.1314L65.0417 21.5562L63.6118 21.0528L62.4076 20.7652L61.1281 20.6214H58.3435L57.7414 20.6933L57.6661 28.675H54.8062L54.7309 21.1966L53.6773 21.3405L51.7205 21.6281V28.675H47.5811L47.5058 24.5044L47.3553 23.5696L46.8285 22.5629L46.2264 22.0595L45.4738 21.7L44.8717 21.5562H42.7644L42.5386 21.1247V20.9809L43.2912 20.8371L47.8821 20.2619L53.9031 19.3271L54.6557 19.1832L54.7309 19.1113V11.7768L54.5804 11.0577L54.2041 10.1948L53.602 9.47577L52.9247 8.97242L52.0968 8.61289L51.4194 8.46907L49.6884 8.32526L49.6131 8.25335V7.82191L49.6884 7.75Z" fill="white"/>
<path d="M20.1815 34.875H22.7452L22.8229 34.9471L22.9006 46.6262L23.1337 47.4913L23.5221 48.1401L24.2213 48.861L25.3089 49.4378L26.2412 49.6541L27.8726 49.7262L28.1057 49.8703V50.3029L27.9503 50.375H14.588L14.4326 50.1587V49.7983L16.2194 49.6541L17.4624 49.3657L18.317 48.861L18.8608 48.3564L19.327 47.6355L19.56 47.0587L19.6377 46.6262L19.7154 45.4006L19.7931 34.9471L20.1815 34.875Z" fill="white"/>
<path d="M51.0324 30.225L51.4467 30.3839L52.2064 31.5763L52.5516 32.2122H52.6207L52.6897 30.3045L53.1041 30.225L53.1731 30.3045V33.2455L53.1041 33.325L52.6207 33.2455L51.723 31.8147L51.5158 31.4173L51.3777 31.3378L51.4467 31.5763V33.2455L51.3777 33.325H50.9633L50.8943 33.2455L50.9633 30.3045L51.0324 30.225Z" fill="white"/>
<path d="M20.2564 30.225L20.8135 30.3045L21.0667 30.5429L21.2186 30.9404L21.2692 31.3378L21.1173 31.8147L20.8135 32.1327L20.6109 32.2122H20.1551V33.2455L20.1045 33.325H19.8006L19.75 33.0865L19.8006 30.3839L19.8513 30.3045L20.2564 30.225Z" fill="white"/>
<path d="M26.1144 30.225L26.3608 30.3045L26.8535 31.5763L27.3462 33.166V33.325H26.9767L26.7303 32.8481V32.6891L25.6833 32.7686L25.4369 33.325H25.0674L25.129 32.8481L25.9296 30.4634L26.1144 30.225Z" fill="white"/>
<path d="M58.0182 30.225L58.2646 30.3045L58.511 30.8609L59.25 33.166V33.325H58.8805L58.511 32.6891H57.5255L57.4023 33.2455L56.9712 33.325L57.0328 32.8481L57.8335 30.4634L58.0182 30.225Z" fill="white"/>
<path d="M72.7922 30.225L73.2637 30.3025L73.578 30.69L73.6304 31.155L73.3685 31.0775L73.0542 30.7675L72.7922 30.845L72.6874 31L72.7398 31.31L73.0542 31.5425L73.4733 31.775L73.6304 32.0075L73.6828 32.4725L73.5256 32.9375L73.2637 33.2475L72.8446 33.325L72.4779 33.17L72.216 32.705L72.1636 32.3175L72.3207 32.24L72.5303 32.395L72.7398 32.705H73.1589L73.2637 32.3175L72.897 32.085L72.4779 31.775L72.3207 31.5425L72.2683 31L72.4255 30.535L72.7922 30.225Z" fill="white"/>
<path d="M31.0751 30.225L32.6634 30.3045L32.5253 30.7019L32.4562 30.7814L31.8347 30.8609L31.7656 33.2455L31.6966 33.325H31.2822L31.2132 33.2455L31.1441 30.8609L30.3845 30.7019V30.3045L31.0751 30.225Z" fill="white"/>
<path d="M35.7019 30.225H37.9808V30.6329L37.9095 30.7144L37.1974 30.796L37.1262 33.2434L37.055 33.325H36.6277L36.5565 32.5908V30.7144L35.7019 30.6329V30.225Z" fill="white"/>
<path d="M41.0193 30.225L41.4604 30.3045L41.8279 30.7814L42.122 31.2583V31.4173H42.269L42.416 31.0198L42.7836 30.3839L43.0041 30.225H43.2981L43.2246 30.7019L42.4895 31.9737L42.416 33.2455L42.3425 33.325H41.9014L41.8279 32.0532L41.5339 31.4173L41.0193 30.4634V30.225Z" fill="white"/>
<path d="M66.9373 30.225H67.4843L67.5754 30.3066L67.6666 32.7539L69.125 32.8355L69.0339 33.2434L68.8516 33.325H66.9373L66.8462 33.1618L66.9373 30.225Z" fill="white"/>
<path d="M19.75 31H21.0522L21.2692 31.1937V31.5812L21.0522 31.7104L20.6181 31.775H19.8585L19.75 31.7104V31Z" fill="white"/>
<path d="M26.1308 31H26.2827L26.5865 31.5536V31.7196L25.9788 31.775L25.8269 31.7196L26.0548 31.1661L26.1308 31Z" fill="white"/>
<path d="M58.1105 31L58.3384 31.1788L58.4903 31.5365V31.775H57.7307L57.9586 31.2385L58.1105 31Z" fill="white"/>
</svg>
