<svg width="69" height="99" viewBox="0 0 69 99" fill="none" xmlns="http://www.w3.org/2000/svg">
<path d="M2.5 0H67.5L68.75 0.625V16.25L56.875 75L56.25 95L51.875 96.875L44.375 98.125L31.25 98.75L19.375 97.5L13.75 96.25L12.5 94.375L11.875 75L0.625 20L0 16.25V0.625L2.5 0Z" fill="black"/>
<path d="M6.25 16.875H63.125L61.875 25.625L52.5 71.875L51.25 73.75L45 75H23.75L17.5 73.75L16.25 71.875L6.25 22.5V16.875Z" fill="#F8F8F8"/>
<path d="M15.625 28.75H53.125L54.375 29.375V34.375L50 53.75L49.375 54.375H18.75L14.375 35L13.75 30.625L15.625 28.75Z" fill="black"/>
<path d="M17.5 78.75L23.75 79.375H45L51.25 78.75V91.25L48.75 92.5L44.375 93.125H23.75L18.125 91.875L17.5 91.25V78.75Z" fill="#F5F5F6"/>
<path d="M20 33.75H48.75L48.125 40L46.25 48.75L45.625 49.375H23.125L21.25 43.75L20 38.125V33.75Z" fill="white"/>
<path d="M5 5.625H63.75V11.25H5V5.625Z" fill="#FDFDFD"/>
</svg>
